<mxfile host="app.diagrams.net" modified="2023-11-30T16:35:44.260Z" agent="Mozilla/5.0 (Windows NT 10.0; Win64; x64) AppleWebKit/537.36 (KHTML, like Gecko) Chrome/119.0.0.0 Safari/537.36 Edg/119.0.0.0" etag="_SFGfWYGaEZHeg6ibLsH" version="22.1.5" type="github">
  <diagram id="C5RBs43oDa-KdzZeNtuy" name="Page-1">
    <mxGraphModel dx="1434" dy="796" grid="1" gridSize="10" guides="1" tooltips="1" connect="1" arrows="1" fold="1" page="1" pageScale="1" pageWidth="827" pageHeight="1169" math="0" shadow="0">
      <root>
        <mxCell id="WIyWlLk6GJQsqaUBKTNV-0" />
        <mxCell id="WIyWlLk6GJQsqaUBKTNV-1" parent="WIyWlLk6GJQsqaUBKTNV-0" />
        <mxCell id="w3jYGkp72_YzWOtE-xm8-9" style="edgeStyle=orthogonalEdgeStyle;rounded=0;orthogonalLoop=1;jettySize=auto;html=1;exitX=0.5;exitY=1;exitDx=0;exitDy=0;entryX=0.5;entryY=0;entryDx=0;entryDy=0;" edge="1" parent="WIyWlLk6GJQsqaUBKTNV-1" source="w3jYGkp72_YzWOtE-xm8-0" target="w3jYGkp72_YzWOtE-xm8-1">
          <mxGeometry relative="1" as="geometry">
            <mxPoint x="86" y="250" as="targetPoint" />
            <mxPoint x="196" y="240" as="sourcePoint" />
          </mxGeometry>
        </mxCell>
        <mxCell id="w3jYGkp72_YzWOtE-xm8-10" style="edgeStyle=orthogonalEdgeStyle;rounded=0;orthogonalLoop=1;jettySize=auto;html=1;exitX=0.5;exitY=1;exitDx=0;exitDy=0;entryX=0.5;entryY=0;entryDx=0;entryDy=0;" edge="1" parent="WIyWlLk6GJQsqaUBKTNV-1" source="w3jYGkp72_YzWOtE-xm8-0" target="w3jYGkp72_YzWOtE-xm8-2">
          <mxGeometry relative="1" as="geometry" />
        </mxCell>
        <mxCell id="w3jYGkp72_YzWOtE-xm8-0" value="Player Arm" style="rounded=0;whiteSpace=wrap;html=1;" vertex="1" parent="WIyWlLk6GJQsqaUBKTNV-1">
          <mxGeometry x="56" y="150" width="120" height="60" as="geometry" />
        </mxCell>
        <mxCell id="w3jYGkp72_YzWOtE-xm8-1" value="Player Arm 1" style="rounded=0;whiteSpace=wrap;html=1;" vertex="1" parent="WIyWlLk6GJQsqaUBKTNV-1">
          <mxGeometry x="26" y="270" width="80" height="40" as="geometry" />
        </mxCell>
        <mxCell id="w3jYGkp72_YzWOtE-xm8-2" value="Player Arm 2" style="rounded=0;whiteSpace=wrap;html=1;" vertex="1" parent="WIyWlLk6GJQsqaUBKTNV-1">
          <mxGeometry x="126" y="270" width="80" height="40" as="geometry" />
        </mxCell>
        <mxCell id="w3jYGkp72_YzWOtE-xm8-13" value="Ball" style="whiteSpace=wrap;html=1;" vertex="1" parent="WIyWlLk6GJQsqaUBKTNV-1">
          <mxGeometry x="472" y="150" width="120" height="60" as="geometry" />
        </mxCell>
        <mxCell id="w3jYGkp72_YzWOtE-xm8-17" style="edgeStyle=orthogonalEdgeStyle;rounded=0;orthogonalLoop=1;jettySize=auto;html=1;exitX=0.5;exitY=1;exitDx=0;exitDy=0;entryX=0.5;entryY=0;entryDx=0;entryDy=0;" edge="1" parent="WIyWlLk6GJQsqaUBKTNV-1" source="w3jYGkp72_YzWOtE-xm8-14" target="w3jYGkp72_YzWOtE-xm8-15">
          <mxGeometry relative="1" as="geometry" />
        </mxCell>
        <mxCell id="w3jYGkp72_YzWOtE-xm8-18" style="edgeStyle=orthogonalEdgeStyle;rounded=0;orthogonalLoop=1;jettySize=auto;html=1;exitX=0.5;exitY=1;exitDx=0;exitDy=0;entryX=0.5;entryY=0;entryDx=0;entryDy=0;" edge="1" parent="WIyWlLk6GJQsqaUBKTNV-1" source="w3jYGkp72_YzWOtE-xm8-14" target="w3jYGkp72_YzWOtE-xm8-16">
          <mxGeometry relative="1" as="geometry" />
        </mxCell>
        <mxCell id="w3jYGkp72_YzWOtE-xm8-14" value="Score" style="rounded=0;whiteSpace=wrap;html=1;" vertex="1" parent="WIyWlLk6GJQsqaUBKTNV-1">
          <mxGeometry x="266" y="150" width="120" height="60" as="geometry" />
        </mxCell>
        <mxCell id="w3jYGkp72_YzWOtE-xm8-15" value="Player Score 1" style="rounded=0;whiteSpace=wrap;html=1;" vertex="1" parent="WIyWlLk6GJQsqaUBKTNV-1">
          <mxGeometry x="226" y="270" width="90" height="40" as="geometry" />
        </mxCell>
        <mxCell id="w3jYGkp72_YzWOtE-xm8-16" value="Player Score 2" style="rounded=0;whiteSpace=wrap;html=1;" vertex="1" parent="WIyWlLk6GJQsqaUBKTNV-1">
          <mxGeometry x="336" y="270" width="90" height="40" as="geometry" />
        </mxCell>
        <mxCell id="w3jYGkp72_YzWOtE-xm8-21" value="Divider" style="whiteSpace=wrap;html=1;" vertex="1" parent="WIyWlLk6GJQsqaUBKTNV-1">
          <mxGeometry x="682" y="150" width="120" height="60" as="geometry" />
        </mxCell>
        <mxCell id="w3jYGkp72_YzWOtE-xm8-22" value="&lt;h1&gt;Scoring&lt;/h1&gt;&lt;p&gt;If the ball hits the back wall of the opposing opponent, then the player scores.&lt;/p&gt;" style="text;html=1;strokeColor=none;fillColor=none;spacing=5;spacingTop=-20;whiteSpace=wrap;overflow=hidden;rounded=0;" vertex="1" parent="WIyWlLk6GJQsqaUBKTNV-1">
          <mxGeometry x="612" y="400" width="190" height="120" as="geometry" />
        </mxCell>
        <mxCell id="w3jYGkp72_YzWOtE-xm8-23" value="&lt;h1&gt;Ball Physics&lt;/h1&gt;&lt;p&gt;The ball will always continue at the same speed horizontally and will only flip directions when it makes contact with either players arm.&lt;/p&gt;&lt;p&gt;The ball will flip its vertical direction when it hits a side wall and maintain its speed.&lt;/p&gt;&lt;p&gt;Note: The ball physics for when it comes in contact with an arm aren&#39;t set in stone.&lt;/p&gt;" style="text;html=1;strokeColor=none;fillColor=none;spacing=5;spacingTop=-20;whiteSpace=wrap;overflow=hidden;rounded=0;" vertex="1" parent="WIyWlLk6GJQsqaUBKTNV-1">
          <mxGeometry x="224" y="400" width="190" height="260" as="geometry" />
        </mxCell>
        <mxCell id="w3jYGkp72_YzWOtE-xm8-26" value="&lt;h1&gt;Game Start&lt;/h1&gt;&lt;p&gt;To start the game and initialize each round, the space bar must be hit.&lt;/p&gt;&lt;p&gt;The ball will then head in a random direction* at a set velocity.&lt;/p&gt;&lt;p&gt;*The direction will be restricted from -45 to 45 degrees when headed right and 135 to 225 when headed left.&lt;/p&gt;" style="text;html=1;strokeColor=none;fillColor=none;spacing=5;spacingTop=-20;whiteSpace=wrap;overflow=hidden;rounded=0;" vertex="1" parent="WIyWlLk6GJQsqaUBKTNV-1">
          <mxGeometry x="16" y="400" width="190" height="240" as="geometry" />
        </mxCell>
        <mxCell id="w3jYGkp72_YzWOtE-xm8-27" value="&lt;h1&gt;Controls&lt;/h1&gt;&lt;p&gt;Player 1 (left) will control the up and down motion of the arm with the w and s keys, respectively.&lt;/p&gt;&lt;p&gt;Player 2 (right) will control the up and down motion using the up and down arrow.&lt;/p&gt;" style="text;html=1;strokeColor=none;fillColor=none;spacing=5;spacingTop=-20;whiteSpace=wrap;overflow=hidden;rounded=0;" vertex="1" parent="WIyWlLk6GJQsqaUBKTNV-1">
          <mxGeometry x="420" y="400" width="190" height="170" as="geometry" />
        </mxCell>
        <mxCell id="w3jYGkp72_YzWOtE-xm8-28" value="&lt;h1&gt;Game End&lt;/h1&gt;&lt;p&gt;The round ends when a player scores. The ball is reset to the center and the round begins when the spacebar is hit.&lt;/p&gt;&lt;p&gt;The game ends when one of the players reaches 7 points&lt;/p&gt;" style="text;html=1;strokeColor=none;fillColor=none;spacing=5;spacingTop=-20;whiteSpace=wrap;overflow=hidden;rounded=0;" vertex="1" parent="WIyWlLk6GJQsqaUBKTNV-1">
          <mxGeometry x="612" y="520" width="190" height="150" as="geometry" />
        </mxCell>
        <mxCell id="w3jYGkp72_YzWOtE-xm8-29" value="Turtles" style="text;html=1;strokeColor=#6c8ebf;fillColor=#dae8fc;align=center;verticalAlign=middle;whiteSpace=wrap;rounded=0;fillStyle=solid;" vertex="1" parent="WIyWlLk6GJQsqaUBKTNV-1">
          <mxGeometry x="56" y="90" width="744" height="30" as="geometry" />
        </mxCell>
        <mxCell id="w3jYGkp72_YzWOtE-xm8-30" value="Rules" style="text;html=1;strokeColor=#6c8ebf;fillColor=#dae8fc;align=center;verticalAlign=middle;whiteSpace=wrap;rounded=0;fillStyle=solid;" vertex="1" parent="WIyWlLk6GJQsqaUBKTNV-1">
          <mxGeometry x="56" y="350" width="744" height="30" as="geometry" />
        </mxCell>
      </root>
    </mxGraphModel>
  </diagram>
</mxfile>
